<?xml version="1.0" encoding="UTF-8" standalone="no"?>
<!-- Created with Inkscape (http://www.inkscape.org/) -->

<svg
   version="1.1"
   id="svg2"
   width="1080"
   height="1400"
   viewBox="0 0 1080 1400"
   sodipodi:docname="MIHR-KURAN.svg"
   xml:space="preserve"
   inkscape:export-filename="MİHR.png"
   inkscape:export-xdpi="96"
   inkscape:export-ydpi="96"
   inkscape:version="1.2.2 (b0a8486541, 2022-12-01)"
   xmlns:inkscape="http://www.inkscape.org/namespaces/inkscape"
   xmlns:sodipodi="http://sodipodi.sourceforge.net/DTD/sodipodi-0.dtd"
   xmlns="http://www.w3.org/2000/svg"
   xmlns:svg="http://www.w3.org/2000/svg"><defs
     id="defs6" /><sodipodi:namedview
     id="namedview4"
     pagecolor="#505050"
     bordercolor="#eeeeee"
     borderopacity="1"
     inkscape:showpageshadow="0"
     inkscape:pageopacity="0"
     inkscape:pagecheckerboard="0"
     inkscape:deskcolor="#505050"
     showgrid="false"
     inkscape:zoom="0.51420519"
     inkscape:cx="405.48016"
     inkscape:cy="774.98246"
     inkscape:window-width="1920"
     inkscape:window-height="1043"
     inkscape:window-x="0"
     inkscape:window-y="0"
     inkscape:window-maximized="1"
     inkscape:current-layer="layer1" /><g
     inkscape:groupmode="layer"
     id="layer1"
     inkscape:label="KuraniKerim"
     style="display:inline"><g
       id="g15591"
       inkscape:export-filename="KuranKerimMİHR.png"
       inkscape:export-xdpi="96"
       inkscape:export-ydpi="96"
       transform="matrix(4.6916552,0,0,4.7325812,-2838.163,-294.85262)"><rect
         style="display:inline;opacity:1;fill:#00123c;fill-opacity:1;stroke-width:0.778556;stroke-dasharray:none;stroke-opacity:0.967731;paint-order:normal;stop-color:#000000"
         id="rect1213"
         width="230.19545"
         height="295.82166"
         x="604.93854"
         y="62.302708"
         inkscape:label="DarkBlue" /><rect
         style="opacity:1;fill:none;fill-opacity:1;stroke:#dc6002;stroke-width:4.98213;stroke-dasharray:none;stroke-opacity:1;paint-order:normal;stop-color:#000000"
         id="rect15471"
         width="192.01341"
         height="226.80396"
         x="607.45331"
         y="97.182137"
         ry="0"
         inkscape:label="Blue" /><rect
         style="opacity:1;fill:#00ffff;fill-opacity:1;stroke:none;stroke-width:1.98079;stroke-dasharray:none;stroke-opacity:1;paint-order:normal;stop-color:#000000"
         id="rect1063"
         width="192.47076"
         height="225.81274"
         x="604.96436"
         y="97.191078"
         ry="0"
         inkscape:label="Blue" /><path
         id="path1279"
         style="display:inline;opacity:1;fill:#ffffff;fill-opacity:1;stroke-width:0.778556;stroke-dasharray:none;stroke-opacity:0.967731;paint-order:normal;stop-color:#000000"
         inkscape:label="White"
         d="M 625.06641,62.302733 604.93938,83.546071 V 124.38606 L 757.9257,268.7509 835.13448,187.2589 V 62.302733 Z m 0,0 h -20.12703 v 21.243338 z" /><rect
         style="opacity:1;fill:#ffffff;fill-opacity:1;stroke:none;stroke-width:2.20762;stroke-dasharray:none;stroke-opacity:1;paint-order:normal;stop-color:#000000"
         id="rect6503"
         width="96.717072"
         height="20.24704"
         x="692.75812"
         y="296.4758" /><path
         id="rect1342"
         style="opacity:1;fill:#dc6002;fill-opacity:1;stroke:#000000;stroke-width:0.89889;stroke-dasharray:none;stroke-opacity:1;paint-order:normal;stop-color:#000000"
         d="m 720.03626,130.2896 a 75.102631,55.157566 0 0 0 -37.11133,7.23047 v 95.85547 a 75.102631,55.157566 0 0 0 37.11133,7.22852 75.102631,55.157566 0 0 0 37.11134,-7.22852 v -95.87109 a 75.102631,55.157566 0 0 0 -37.11134,-7.21485 z"
         inkscape:label="Broun" /><rect
         style="opacity:1;fill:#ffff00;fill-opacity:1;stroke:#000000;stroke-width:0.834;stroke-dasharray:none;stroke-opacity:1;paint-order:normal;stop-color:#000000"
         id="rect1288"
         width="110.87914"
         height="73.863022"
         x="664.59668"
         y="148.51532"
         inkscape:label="Yellow" /><ellipse
         style="opacity:1;fill:#dc6002;fill-opacity:1;stroke:#dc6002;stroke-width:1.42198;stroke-dasharray:none;stroke-opacity:1;paint-order:normal;stop-color:#000000"
         id="path6563"
         cx="637.17859"
         cy="324.81439"
         rx="13.473892"
         ry="13.775007"
         inkscape:label="Cercul" /><rect
         style="opacity:1;fill:#0ca1bf;fill-opacity:1;stroke:none;stroke-width:2.12042;stroke-dasharray:none;stroke-opacity:1;paint-order:normal;stop-color:#000000"
         id="rect6569"
         width="93.739182"
         height="18.740999"
         x="627.93567"
         y="79.441391" /><path
         style="fill:#3f3f3f;stroke-width:0.592852"
         d="m 647.72298,96.105014 -0.96624,0.350032 0.24167,-0.684419 0.24166,-0.684418 0.72457,-0.228007 0.72459,-0.228013 v 0.5624 0.562394 z m -13.79666,-2.324603 -0.18629,1.809818 -0.45763,-1.055153 -0.45762,-1.055153 v -1.646958 -1.646964 l 0.76272,-0.460496 0.76271,-0.460501 5.02935,0.19681 5.02937,0.196804 0.37491,-0.922345 0.37492,-0.922351 h 0.5405 0.54049 l -0.0956,2.305606 -0.0956,2.305606 0.43445,0.410128 0.43444,0.410128 1.03854,-0.613746 1.03853,-0.613747 0.17868,-1.38511 0.17867,-1.38511 5.00778,0.1465 5.00778,0.146494 -1.41819,-0.572618 -1.41819,-0.572624 0.19785,-0.949735 0.19783,-0.949735 1.52544,-1.021616 1.52543,-1.021617 1.37288,-0.374299 1.37289,-0.3743 v 0.624161 0.624161 l -2.1356,0.961399 -2.1356,0.961399 v 0.43052 0.430519 l 1.37288,0.404466 1.37288,0.404466 0.30509,0.4428 0.3051,0.4428 5.07555,0.287625 5.07554,0.287626 -0.10349,-1.816102 -0.10349,-1.816101 0.0619,-0.720029 0.0619,-0.720028 h 0.61016 0.61019 v 3.168125 3.168124 h -5.6746 -5.67459 l -0.80848,-0.720028 -0.80848,-0.720028 -0.27966,0.720028 -0.27966,0.720028 h -4.45426 -4.45429 l -0.31831,1.149137 -0.31832,1.149142 -1.01435,0.367457 -1.01435,0.367456 -1.33171,-0.600331 -1.33174,-0.600331 -1.10646,-0.336172 -1.10648,-0.336173 0.37977,-0.580095 0.37976,-0.58009 h -3.69702 -3.69705 v 0.643205 0.643204 l -1.18659,-0.292936 -1.18661,-0.292937 z m 57.43377,0.369761 h -1.7894 v -0.302268 -0.302268 l 1.52542,-0.54751 1.52543,-0.547509 v -1.337605 -1.337611 l 3.9037,0.23466 3.9037,0.234654 0.38855,-1.155743 0.38858,-1.155744 -0.17361,-0.766006 -0.1736,-0.766007 1.27118,-0.185162 1.27119,-0.185163 v 1.75555 1.75555 l 0.29977,0.282989 0.29977,0.282994 3.00533,0.149023 3.00533,0.149028 -0.20123,-2.511418 -0.20123,-2.511419 0.78857,0.248145 0.78858,0.248151 0.0228,2.83929 0.0228,2.839297 -8.65907,0.159616 -8.65906,0.159616 -0.38207,1.136435 -0.38208,1.136435 z m 10.7191,-6.33625 h 0.30509 V 87.525911 87.2379 h -0.30509 -0.30508 v 0.288011 0.288011 z m -26.77125,4.032159 h -0.22881 l -0.38136,-1.800071 -0.38136,-1.800071 v -1.368054 -1.368053 h 0.61017 0.61018 v 3.168124 3.168125 z m 8.73251,0 h -1.7198 l -0.38047,-0.581178 -0.38049,-0.581178 0.38559,-1.14689 0.38559,-1.14689 h 0.54991 0.5499 l -0.35121,0.864034 -0.35123,0.864034 h 1.60233 1.60234 L 685.55006,88.677956 685.1672,87.2379 h 0.66468 0.66471 l 0.38484,1.447539 0.38484,1.447533 -0.75302,0.856558 -0.75301,0.856551 z m 29.18315,-1.296051 -0.22483,1.584062 -0.49292,-2.155747 -0.49293,-2.155748 0.4883,-1.012377 0.48828,-1.012377 0.22947,1.584062 0.22944,1.584063 z m -24.20945,0.720028 h -0.55653 l -0.41931,-2.342903 -0.41929,-2.342909 0.32506,-0.306876 0.32508,-0.306876 0.65077,0.379686 0.65076,0.379685 v 2.2701 2.270093 z m -5.2761,-4.032158 h -0.95126 l 0.3771,-0.576023 0.3771,-0.576023 h 0.57417 0.57417 v 0.576023 0.576023 z m 5.10043,-1.728068 h -1.70847 v -0.576023 -0.576023 h 1.52542 1.52543 v -0.864034 -0.864034 h 0.91525 0.91527 v 0.74883 0.748829 l -0.73222,0.691227 -0.7322,0.691228 z m 12.12828,-0.677564 -1.09844,0.199701 0.79458,-1.201128 0.79459,-1.201123 h 0.50814 0.50813 l -0.20429,1.001427 -0.20429,1.001421 z m 9.46415,-0.03047 -0.72457,0.228013 v -0.91204 -0.912034 h 0.9661 0.9661 l -0.24152,0.684027 -0.24153,0.684027 z m 2.63136,-0.235708 -0.91525,0.331558 V 84.339707 83.78176 h 0.91525 0.91527 v 0.226382 0.226383 z m -78.80869,-0.367025 -0.70681,0.219528 -0.397,-0.606425 -0.39701,-0.606431 h 0.64617 0.64619 v -0.864036 -0.864034 h 0.65261 0.6526 l -0.19496,1.250931 -0.19499,1.250931 z m 35.334,0.01469 -0.76271,0.240011 v -1.248051 -1.248051 l 0.76271,0.240011 0.76271,0.240012 v 0.768028 0.768028 z m 13.26606,0.144005 h -1.22552 l 0.76212,-1.152045 0.76212,-1.152045 h 0.4634 0.46338 v 1.152045 1.152045 z m -25.16439,-0.584841 -1.37288,-0.0088 0.91526,-0.558379 0.91525,-0.55838 0.45763,-0.0088 0.45763,-0.0088 v 0.576023 0.576023 z"
         id="path14540" /><path
         id="path15093"
         style="opacity:1;fill:#ffff00;fill-opacity:1;stroke:none;stroke-width:1.10743;stroke-dasharray:none;stroke-opacity:1;paint-order:normal;stop-color:#000000"
         d="m 782.02408,83.751263 a 19.260505,19.260505 0 0 0 -6.13813,14.055177 19.260505,19.260505 0 0 0 19.26022,19.26021 19.260505,19.260505 0 0 0 19.26022,-19.26021 19.260505,19.260505 0 0 0 -6.13081,-14.086648 16.597032,16.597032 0 0 1 0.29766,0.388477 16.597032,16.597032 0 0 1 0.4926,0.715225 16.597032,16.597032 0 0 1 0.45381,0.741845 16.597032,16.597032 0 0 1 0.41384,0.763629 16.597032,16.597032 0 0 1 0.37518,0.784209 16.597032,16.597032 0 0 1 0.33162,0.802355 16.597032,16.597032 0 0 1 0.29041,0.819304 16.597032,16.597032 0 0 1 0.24692,0.832606 16.597032,16.597032 0 0 1 0.2033,0.84472 16.597032,16.597032 0 0 1 0.15732,0.854391 16.597032,16.597032 0 0 1 0.11376,0.86166 16.597032,16.597032 0 0 1 0.0678,0.866497 16.597032,16.597032 0 0 1 0.0229,0.86892 16.597032,16.597032 0 0 1 -0.20452,2.59587 16.597032,16.597032 0 0 1 -0.60754,2.53293 16.597032,16.597032 0 0 1 -0.99721,2.40586 16.597032,16.597032 0 0 1 -1.36025,2.2207 16.597032,16.597032 0 0 1 -1.69181,1.97988 16.597032,16.597032 0 0 1 -1.97987,1.69185 16.597032,16.597032 0 0 1 -2.22071,1.36025 16.597032,16.597032 0 0 1 -2.40586,0.9972 16.597032,16.597032 0 0 1 -2.53293,0.60752 16.597032,16.597032 0 0 1 -2.5959,0.20452 16.597032,16.597032 0 0 1 -2.59706,-0.20452 16.597032,16.597032 0 0 1 -2.5317,-0.60752 16.597032,16.597032 0 0 1 -2.40586,-0.9972 16.597032,16.597032 0 0 1 -2.22071,-1.36025 16.597032,16.597032 0 0 1 -1.9811,-1.69185 16.597032,16.597032 0 0 1 -1.69064,-1.97988 16.597032,16.597032 0 0 1 -1.36149,-2.2207 16.597032,16.597032 0 0 1 -0.99597,-2.40586 16.597032,16.597032 0 0 1 -0.60871,-2.53293 16.597032,16.597032 0 0 1 -0.2033,-2.59587 16.597032,16.597032 0 0 1 0.2033,-2.597077 16.597032,16.597032 0 0 1 0.60871,-2.531717 16.597032,16.597032 0 0 1 0.99597,-2.405868 16.597032,16.597032 0 0 1 1.36149,-2.220699 16.597032,16.597032 0 0 1 0.30497,-0.357006 z" /><text
         xml:space="preserve"
         style="font-style:normal;font-variant:normal;font-weight:normal;font-stretch:normal;font-size:25.3741px;font-family:Impact;-inkscape-font-specification:'Impact, Normal';font-variant-ligatures:normal;font-variant-caps:normal;font-variant-numeric:normal;font-variant-east-asian:normal;text-align:center;text-anchor:middle;opacity:1;fill:#000000;fill-opacity:1;stroke:none;stroke-width:1.52245;stroke-dasharray:none;stroke-opacity:1;paint-order:normal;stop-color:#000000"
         x="656.31439"
         y="197.6245"
         id="text15154"
         transform="scale(1.0971008,0.91149327)"><tspan
           sodipodi:role="line"
           id="tspan15152"
           x="656.31439"
           y="197.6245"
           style="font-style:normal;font-variant:normal;font-weight:normal;font-stretch:normal;font-size:25.3741px;font-family:Impact;-inkscape-font-specification:'Impact, Normal';font-variant-ligatures:normal;font-variant-caps:normal;font-variant-numeric:normal;font-variant-east-asian:normal;stroke-width:1.52245">KUR'AN-I</tspan><tspan
           sodipodi:role="line"
           x="656.31439"
           y="229.34212"
           id="tspan15156"
           style="font-style:normal;font-variant:normal;font-weight:normal;font-stretch:normal;font-size:25.3741px;font-family:Impact;-inkscape-font-specification:'Impact, Normal';font-variant-ligatures:normal;font-variant-caps:normal;font-variant-numeric:normal;font-variant-east-asian:normal;stroke-width:1.52245">KERİM</tspan></text><g
         aria-label="KELIME - KELIME"
         transform="matrix(0.61951212,-0.01101226,0.01102961,0.50902843,53.797294,16.696965)"
         id="text15312"
         style="font-stretch:condensed;font-size:16px;font-family:Impact;-inkscape-font-specification:'Impact, Condensed';text-align:center;text-anchor:middle;opacity:1;stroke-width:1.11149;stop-color:#000000"><path
           d="m 1025.7993,260.99688 0.4038,5.99973 4.5207,5.6521 -3.1488,1.27839 -3.2702,-4.52405 2.0396,5.02365 -3.0475,1.23724 -4.7579,-11.71943 3.0474,-1.23724 1.8486,4.55313 -0.4949,-5.10269 z"
           id="path15383" /><path
           d="m 1027.3247,260.49576 5.2083,-1.7181 0.7929,2.40384 -2.0848,0.68773 0.7514,2.27771 1.9512,-0.64368 0.7539,2.28513 -1.9513,0.64367 0.8713,2.64126 2.2925,-0.75626 0.793,2.40384 -5.4161,1.78662 z"
           id="path15385" /><path
           d="m 1037.4851,257.39749 2.6434,9.76576 1.9305,-0.52254 0.6614,2.44332 -5.1054,1.3819 -3.3047,-12.20909 z"
           id="path15387" /><path
           d="m 1043.9695,255.86009 2.743,12.34742 -3.2108,0.71328 -2.743,-12.34742 z"
           id="path15389" /><path
           d="m 1056.1587,253.8357 1.8696,12.50951 -2.8434,0.42495 -1.2622,-8.44527 0.1264,8.61501 -2.0167,0.3014 -2.4309,-8.07312 1.2332,8.2521 -2.8434,0.42495 -1.8695,-12.50951 4.211,-0.62934 q 0.3541,1.10039 0.7913,2.59909 l 0.9239,3.11642 -0.1312,-5.95223 z"
           id="path15391" /><path
           d="m 1058.5099,253.6767 5.4721,-0.36634 0.1691,2.5256 -2.1904,0.14664 0.1602,2.39308 2.0501,-0.13724 0.1607,2.40087 -2.0501,0.13725 0.1858,2.77504 2.4086,-0.16126 0.1691,2.5256 -5.6904,0.38095 z"
           id="path15393" /><path
           d="m 1072.6632,259.63814 -0.027,2.17952 -4.1481,-0.0516 0.027,-2.17952 z"
           id="path15395" /><path
           d="m 1085.4444,254.28427 -2.4626,5.48591 1.3348,7.11343 -3.3802,-0.35104 -0.761,-5.53006 -0.56,5.39287 -3.2715,-0.33974 1.3065,-12.58078 3.2715,0.33975 -0.5076,4.88777 1.9607,-4.73687 z"
           id="path15397" /><path
           d="m 1087.1153,254.5778 5.3978,0.97086 -0.4481,2.49128 -2.1607,-0.38862 -0.4246,2.36055 2.0223,0.36373 -0.426,2.36825 -2.0222,-0.36373 -0.4924,2.73733 2.376,0.42734 -0.4481,2.49127 -5.6131,-1.00958 z"
           id="path15399" /><path
           d="m 1097.6186,256.75182 -2.4102,9.82592 1.9424,0.47645 -0.603,2.45837 -5.1368,-1.25997 3.0132,-12.2843 z"
           id="path15401" /><path
           d="m 1104.1094,258.59461 -3.6521,12.10971 -3.1489,-0.94968 3.6521,-12.10971 z"
           id="path15403" /><path
           d="m 1115.7899,262.89406 -4.5785,11.79066 -2.6801,-1.04071 3.0911,-7.95997 -4.1616,7.54425 -1.9008,-0.73812 1.8915,-8.21624 -3.0203,7.7779 -2.6801,-1.04072 4.5786,-11.79065 3.9691,1.54127 q -0.2381,1.13114 -0.6014,2.64947 l -0.7428,3.16449 2.8371,-5.23422 z"
           id="path15405" /><path
           d="m 1117.9444,263.95333 4.9256,2.41175 -1.1131,2.27337 -1.9717,-0.96539 -1.0547,2.15409 1.8454,0.90355 -1.0582,2.1611 -1.8453,-0.90355 -1.2231,2.4979 2.1681,1.06158 -1.1131,2.27337 -5.1221,-2.50795 z"
           id="path15407" /></g><g
         aria-label="LAFZI VE RUHU"
         transform="matrix(0.79277863,0,0,0.47822029,-127.26949,29.75544)"
         id="text15412"
         style="font-stretch:condensed;font-size:16px;font-family:Impact;-inkscape-font-specification:'Impact, Condensed';text-align:center;text-anchor:middle;stroke-width:2"><path
           d="m 1035.2305,409.51703 -3.985,9.29931 1.8383,0.78777 -0.997,2.32662 -4.8615,-2.08328 4.982,-11.62594 z"
           id="path15421" /><path
           d="m 1042.6837,412.27176 -2.3347,12.57287 -3.184,-1.09551 0.5845,-2.20312 -1.1155,-0.38381 -0.9243,2.08621 -3.221,-1.10822 5.6961,-11.41635 z m -4.2933,7.12353 q 0.4626,-2.11288 1.253,-5.17875 -1.6522,3.2651 -2.3168,4.81274 z"
           id="path15423" /><path
           d="m 1044.1602,412.73034 5.3829,1.43263 -0.651,2.4461 -2.2045,-0.58671 -0.6169,2.31775 1.963,0.52242 -0.6189,2.32531 -1.9629,-0.52242 -1.3664,5.13379 -3.1784,-0.84591 z"
           id="path15425" /><path
           d="m 1054.9504,415.23065 -0.4975,2.48187 -3.8963,6.95583 2.4053,0.48215 -0.4975,2.48187 -5.9443,-1.19155 0.3609,-1.80013 4.1095,-7.62222 -2.1908,-0.43915 0.4975,-2.48188 z"
           id="path15427" /><path
           d="m 1058.3819,415.6971 -1.8161,12.51738 -3.255,-0.47224 1.8161,-12.51739 z"
           id="path15429" /><path
           d="m 1069.1465,416.4869 -2.3344,12.54308 -4.9852,-0.2624 -1.2311,-12.73073 3.464,0.18232 q 0.326,5.25095 0.3938,8.86889 0.4492,-3.62984 0.8791,-6.44708 l 0.3499,-2.3364 z"
           id="path15431" /><path
           d="m 1068.7824,416.42133 5.4832,-0.11504 0.053,2.53069 -2.1949,0.0461 0.05,2.39791 2.0543,-0.0431 0.05,2.40572 -2.0542,0.0431 0.058,2.78064 2.4135,-0.0506 0.053,2.5307 -5.7019,0.11962 z"
           id="path15433" /><path
           d="m 1076.9744,416.15209 2.3109,-0.28294 q 2.3108,-0.28295 3.1469,-0.20429 0.8438,0.0777 1.4458,0.75173 0.6088,0.66532 0.8054,2.27052 0.1794,1.46562 -0.1233,2.01429 -0.3028,0.54867 -1.3605,0.78051 0.9987,0.12171 1.3815,0.48412 0.3828,0.36241 0.5022,0.69412 0.1261,0.323 0.3122,1.8429 l 0.4054,3.31121 -3.032,0.37125 -0.5108,-4.17197 q -0.1235,-1.0081 -0.3158,-1.22855 -0.1845,-0.2214 -0.8591,-0.1388 l 0.6931,5.66085 -3.2647,0.39973 z m 3.5277,1.74829 0.3418,2.79166 q 0.5506,-0.0674 0.7497,-0.24134 0.2059,-0.18263 0.1043,-1.01237 l -0.084,-0.69016 q -0.073,-0.5971 -0.3131,-0.75662 -0.2321,-0.16048 -0.7982,-0.0912 z"
           id="path15435" /><path
           d="m 1091.8313,413.70879 1.7059,8.27921 q 0.2901,1.40793 0.3165,2.00073 0.025,0.58515 -0.302,1.28266 -0.3285,0.68985 -1.0061,1.1565 -0.6715,0.45743 -1.6739,0.66396 -1.1095,0.2286 -2.0345,0.0363 -0.925,-0.19229 -1.4673,-0.69476 -0.5422,-0.50248 -0.7528,-1.13711 -0.2121,-0.64229 -0.644,-2.73887 l -1.5104,-7.3304 3.2214,-0.66373 1.914,9.28924 q 0.1671,0.81109 0.2985,1.0233 0.1376,0.20298 0.4054,0.1478 0.3061,-0.0631 0.3398,-0.32526 0.04,-0.27143 -0.151,-1.19729 l -1.8808,-9.12856 z"
           id="path15437" /><path
           d="m 1099.3601,411.53144 3.5261,12.147 -3.1587,0.91691 -1.481,-5.10189 -0.9453,0.27442 1.481,5.10189 -3.1587,0.91692 -3.5261,-12.147 3.1587,-0.91692 1.261,4.34411 0.9454,-0.27442 -1.2611,-4.34411 z"
           id="path15439" /><path
           d="m 1106.7136,408.78973 2.9601,7.91791 q 0.5034,1.34648 0.6207,1.92815 0.1147,0.57435 -0.101,1.31387 -0.2183,0.7322 -0.816,1.2976 -0.5931,0.55534 -1.5517,0.91372 -1.0611,0.39669 -2.0047,0.3491 -0.9436,-0.0476 -1.5567,-0.4606 -0.6132,-0.41301 -0.9189,-1.00767 -0.3084,-0.60197 -1.058,-2.60706 l -2.6209,-7.0105 3.0808,-1.15175 3.3212,8.88387 q 0.29,0.77569 0.4526,0.96513 0.1671,0.17939 0.4233,0.0836 0.2927,-0.10943 0.2856,-0.3737 0,-0.27431 -0.3335,-1.15977 l -3.2637,-8.73019 z"
           id="path15441" /></g><text
         xml:space="preserve"
         style="font-style:normal;font-variant:normal;font-weight:normal;font-stretch:normal;font-size:9.3923px;font-family:'Arial Black';-inkscape-font-specification:'Arial Black, Normal';font-variant-ligatures:normal;font-variant-caps:normal;font-variant-numeric:normal;font-variant-east-asian:normal;text-align:center;text-anchor:middle;opacity:1;fill:#000000;fill-opacity:1;stroke:none;stroke-width:1.17403;stroke-dasharray:none;stroke-opacity:1;paint-order:normal;stop-color:#000000"
         x="992.42798"
         y="232.74353"
         id="text15468"
         transform="scale(0.74722455,1.3382858)"><tspan
           sodipodi:role="line"
           id="tspan15466"
           x="992.42798"
           y="232.74353"
           style="font-style:normal;font-variant:normal;font-weight:normal;font-stretch:normal;font-size:9.3923px;font-family:'Arial Black';-inkscape-font-specification:'Arial Black, Normal';font-variant-ligatures:normal;font-variant-caps:normal;font-variant-numeric:normal;font-variant-east-asian:normal;stroke-width:1.17403">Dr. İSKENDER ALİ MİHR</tspan></text></g></g></svg>
